<?xml version="1.0" encoding="UTF-8" standalone="no"?>
<!-- Created with Inkscape (http://www.inkscape.org/) -->

<svg
   width="1920"
   height="600"
   viewBox="0 0 1920 600"
   version="1.1"
   id="svg5"
   xml:space="preserve"
   xmlns="http://www.w3.org/2000/svg"
   xmlns:svg="http://www.w3.org/2000/svg"><defs
     id="defs2" /><g
     id="layer1"><path
       id="path1697"
       style="fill:#000000;stroke-width:1.04624"
       d="M 0,0.98242188 52.476562,168.56641 534.91406,574.83008 626.32422,463.10742 H 605.4707 v -24.79297 l -67.59375,58.76172 a 21.566607,21.566607 0 0 1 8.60743,17.23438 21.566607,21.566607 0 0 1 -21.56641,21.56836 21.566607,21.566607 0 0 1 -21.56641,-21.56836 21.566607,21.566607 0 0 1 21.56641,-21.56641 21.566607,21.566607 0 0 1 9.19531,2.05859 l 70.57617,-61.35546 h 0.78125 v -23.33399 l -138.68945,30.13281 a 21.566607,21.566607 0 0 1 2.75977,10.54102 21.566607,21.566607 0 0 1 -21.56641,21.56641 21.566607,21.566607 0 0 1 -21.56641,-21.56641 21.566607,21.566607 0 0 1 21.56641,-21.56641 21.566607,21.566607 0 0 1 16.17773,7.31446 l 141.09375,-30.65625 h 0.22461 v -23.38282 h -0.004 L 391.86523,381.7207 a 21.566607,21.566607 0 0 1 0.73047,5.54297 21.566607,21.566607 0 0 1 -21.5664,21.56641 21.566607,21.566607 0 0 1 -21.56641,-21.56641 21.566607,21.566607 0 0 1 21.56641,-21.5664 21.566607,21.566607 0 0 1 19.23828,11.83398 l 215.20312,0.7793 v -23.38282 h -0.11914 L 315.55273,321.67188 a 21.566607,21.566607 0 0 1 0.0996,2.0664 21.566607,21.566607 0 0 1 -21.5664,21.56836 21.566607,21.566607 0 0 1 -21.56641,-21.56836 21.566607,21.566607 0 0 1 21.56641,-21.5664 21.566607,21.566607 0 0 1 20.59765,15.1875 l 290.78711,33.37109 v -23.36914 h -0.1875 L 238.66797,260.76562 a 21.566607,21.566607 0 0 1 -21.52735,21.01563 21.566607,21.566607 0 0 1 -21.5664,-21.56641 21.566607,21.566607 0 0 1 21.5664,-21.5664 21.566607,21.566607 0 0 1 21.23047,17.80664 l 367.09961,66.68554 v -23.34765 h -0.23437 L 161.57227,199.37305 a 21.566607,21.566607 0 0 1 -21.375,18.88476 21.566607,21.566607 0 0 1 -21.56641,-21.5664 21.566607,21.566607 0 0 1 21.56641,-21.56641 21.566607,21.566607 0 0 1 21.50195,19.98633 L 605.4707,295.55469 v -25.42188 h 24.23828 z M 630.00977,270.13281 v 25.47461 H 1917.9062 v -25.47461 z m 0,29.66016 v 23.38281 h 149.36914 v -23.38281 z m 256.13671,0 v 23.38281 h 101.63477 v -23.38281 z m 208.40432,0 v 23.38281 h 101.6328 v -23.38281 z m 175.5137,0 30.1855,23.38281 h 104.3379 v -23.38281 z m 170.1132,0 v 23.38281 h 35.5899 v -23.38281 z m 71.1778,0 v 23.38281 h 101.6347 v -23.38281 z m 138.5742,0 15.0957,23.38281 h 2.6992 l 15.0957,-23.38281 z m 69.8301,0 v 23.38281 h 198.1464 V 299.79297 Z M 630.00977,327.36133 v 23.38281 h 149.36914 v -23.38281 z m 184.95898,0 v 23.38281 h 208.40235 v -23.38281 z m 243.99215,0 v 23.38281 h 137.2227 v -23.38281 z m 172.8145,0 v 23.38281 h 35.5879 v -11.69141 l -15.0938,-11.6914 z m 71.1777,0 v 23.38281 h 101.6348 v -23.38281 z m 137.2246,0 v 23.38281 h 35.5899 v -23.38281 z m 71.1778,0 v 23.38281 h 101.6347 v -23.38281 z m 208.4043,0 v 23.38281 h 198.1464 v -23.38281 z m -1089.75003,27.5664 v 23.38282 h 149.36914 v -23.38282 z m 256.13671,0 v 23.38282 h 137.22462 v -23.38282 z m 172.81442,0 v 23.38282 h 137.2227 v -23.38282 z m 242.5645,0 -15.9649,23.38282 h 119.0274 v -23.38282 z m 138.6523,0 v 23.38282 h 35.5899 v -23.38282 z m 71.1778,0 v 23.38282 h 101.6347 v -23.38282 z m 137.2246,0 v 23.38282 h 16.4433 l -15.0937,-23.38282 z m 34.2402,0 -15.0937,23.38282 h 16.4433 v -23.38282 z m 36.9395,0 v 23.38282 h 198.1464 V 354.92773 Z M 630.00977,382.49609 v 23.38282 h 220.54687 v -23.38282 z m 256.13671,0 v 23.38282 h 137.22462 v -23.38282 z m 172.81442,0 v 23.38282 h 137.2227 v -23.38282 z m 172.8145,0 v 23.38282 h 34.2383 l -15.0938,-23.38282 z m 55.584,0 14.3125,23.38282 h 102.916 v -23.38282 z m 152.8183,0 v 23.38282 h 35.5899 v -23.38282 z m 71.1778,0 v 23.38282 h 101.6347 v -23.38282 z m 137.2246,0 v 23.38282 h 35.5898 v -23.38282 z m 71.1797,0 v 23.38282 h 198.1464 V 382.49609 Z M 630.00977,410.06445 v 23.38282 h 149.36914 v -23.38282 z m 256.13671,0 v 23.38282 h 21.21094 v -23.38282 z m 48.7793,0 v 23.38282 h 88.44532 v -23.38282 z m 124.03512,0 v 23.38282 h 21.211 v -23.38282 z m 48.7793,0 v 23.38282 h 88.4434 v -23.38282 z m 124.0352,0 v 23.38282 h 35.5879 v -23.38282 z m 71.1777,0 v 23.38282 h 21.211 v -23.38282 z m 48.7793,0 v 23.38282 h 52.8555 v -23.38282 z m 159.6231,0 v 23.38282 h 21.2109 v -23.38282 z m 48.7793,0 v 23.38282 h 52.8554 v -23.38282 z m 88.4453,0 v 23.38282 h 35.5898 v -23.38282 z m 71.1797,0 v 23.38282 h 21.2109 v -23.38282 z m 48.7793,0 v 23.38282 h 149.3671 V 410.06445 Z M 630.00977,437.63281 v 25.47461 H 1917.9062 v -25.47461 z" /><path
       id="rect2626"
       style="fill:#000000;stroke-width:0.934694"
       d="m 94.314009,247.6435 a 46.994148,8.0911709 40.229107 0 0 40.912701,23.94598 l 10.03706,-12.78041 -5.02857,-4.24449 6.68888,-8.51702 -61.765076,-52.1351 -6.688841,8.51702 -5.028537,-4.24451 -10.037119,12.78036 a 46.994148,8.0911709 40.229107 0 0 30.909502,36.67817 z" /><path
       id="rect2626-1"
       style="fill:#000000;stroke-width:0.934694"
       d="m 171.65141,312.99696 a 46.994148,8.0911709 40.229107 0 0 40.91269,23.94598 l 10.03707,-12.78041 -5.02857,-4.24449 6.68888,-8.51702 -61.76508,-52.1351 -6.68884,8.51702 -5.02854,-4.24451 -10.03712,12.78036 a 46.994148,8.0911709 40.229107 0 0 30.90951,36.67817 z" /><path
       id="rect2626-6"
       style="fill:#000000;stroke-width:0.934694"
       d="m 248.98881,378.35042 a 46.994148,8.0911709 40.229107 0 0 40.91269,23.94598 l 10.03707,-12.78041 -5.02858,-4.24449 6.68888,-8.51702 -61.76506,-52.1351 -6.68885,8.51702 -5.02854,-4.24451 -10.03712,12.78036 a 46.994148,8.0911709 40.229107 0 0 30.90951,36.67817 z" /><path
       id="rect2626-9"
       style="fill:#000000;stroke-width:0.934694"
       d="m 326.32619,443.70387 a 46.994148,8.0911709 40.229107 0 0 40.9127,23.94598 l 10.03706,-12.78041 -5.02857,-4.24449 6.68888,-8.51703 -61.76507,-52.13509 -6.68885,8.51701 -5.02853,-4.2445 -10.03712,12.78036 a 46.994148,8.0911709 40.229107 0 0 30.9095,36.67817 z" /><path
       id="rect2626-2"
       style="fill:#000000;stroke-width:0.934694"
       d="m 403.66359,509.05733 a 46.994148,8.0911709 40.229107 0 0 40.9127,23.94598 l 10.03706,-12.78041 -5.02857,-4.24449 6.68888,-8.51703 -61.76507,-52.13509 -6.68885,8.51701 -5.02854,-4.24451 -10.03711,12.78037 a 46.994148,8.0911709 40.229107 0 0 30.9095,36.67817 z" /><path
       id="rect2626-24"
       style="fill:#000000;stroke-width:0.934694"
       d="m 481.00099,574.41079 a 46.994148,8.0911709 40.229107 0 0 40.91269,23.94598 l 10.03707,-12.78041 -5.02857,-4.24449 6.68888,-8.51703 -61.76507,-52.13509 -6.68885,8.51701 -5.02853,-4.24451 -10.03713,12.78037 a 46.994148,8.0911709 40.229107 0 0 30.90951,36.67817 z" /><circle
       style="fill:#000000;stroke:none;stroke-width:0.968741;stroke-dasharray:none;stroke-opacity:1"
       id="path2918"
       cx="617.73999"
       cy="297.70001"
       r="7.4810472" /><circle
       style="fill:#000000;stroke:none;stroke-width:0.968741;stroke-dasharray:none;stroke-opacity:1"
       id="path2918-70"
       cx="617.73999"
       cy="435.53973"
       r="7.4810472" /><circle
       style="fill:#000000;stroke:none;stroke-width:0.968741;stroke-dasharray:none;stroke-opacity:1"
       id="path2918-70-0"
       cx="617.73999"
       cy="366.61987"
       r="7.4810472" /></g></svg>
